<?xml version="1.0" encoding="utf-8" ?><svg xmlns="http://www.w3.org/2000/svg" xmlns:xlink="http://www.w3.org/1999/xlink" width="525" height="520" viewBox="0 0 525 520"><clipPath id="cl_3"><rect width="525" height="520"/></clipPath><g clip-path="url(#cl_3)"><path fill="#111827" transform="translate(-250 -177)" d="M512.403 255.553C522.937 249.797 534.816 242.183 545.238 235.902L611.607 195.924C620.951 190.348 632.124 182.718 641.55 177.883C646.612 180.199 659.274 188.23 664.686 191.436C681.637 201.388 698.505 211.482 715.286 221.719L754.53 245.465C760.222 248.929 769.311 253.972 774.249 257.746C775.377 262.36 774.9 291.701 774.901 298.681L774.966 396.776C771.081 400.029 762.257 404.586 757.547 407.663C741.571 418.099 723.245 427.714 707.542 438.234C717.223 445.14 730.598 452.862 740.945 459.159C751.428 465.54 763.864 473.562 774.452 479.199C775.062 494.892 774.512 514.583 774.521 530.539L774.489 616.268C771.331 618.761 763.988 622.874 760.292 625.077C752.307 629.802 744.377 634.618 736.504 639.526L681.338 673.269C674.755 677.27 645.873 695.611 641.293 695.809C617.781 682.418 595.409 668.462 572.3 654.453L512.209 618.441L435.292 665.04C419.313 674.831 399.22 688.053 383.073 696.574C373.475 691.918 357.785 681.673 348.277 675.909C328.95 664.405 309.696 652.781 290.515 641.036L265.808 626.107C261.326 623.394 254.302 619.373 250.475 616.029C249.93 610.764 250.126 603.176 250.127 597.749L250.098 568.978C249.936 539.468 249.925 509.956 250.065 480.446C253.302 477.529 271.992 466.525 276.551 463.77C290.723 455.254 304.77 446.531 318.688 437.605C297.521 424.786 272.38 411.059 251.462 397.453C249.264 396.023 249.843 374.416 249.842 370.09L249.823 332.655C249.787 309.405 249.029 281.389 250.009 258.497C261.534 250.418 279.959 240.288 292.391 232.813C322.453 215.058 352.295 196.931 381.909 178.437C384.834 178.988 401.512 189.169 405.28 191.376L472.952 231.882C485.524 239.511 499.654 248.589 512.403 255.553ZM260.821 482.187C272.438 488.451 283.473 495.72 294.783 502.546L354.029 538.06C360.862 542.15 377.257 552.789 383.504 555.804C388.314 553.168 393.973 549.24 398.739 546.205C405.837 541.741 412.978 537.347 420.161 533.024L506.214 480.493C499.943 475.021 485.667 466.926 477.869 462.199L428.714 432.442C418.541 426.193 408.329 420.007 398.078 413.887C394.983 412.04 387.14 407.111 384.127 405.864L299.922 457.417C287.982 464.836 271.769 473.986 260.821 482.187ZM767.179 488.611C749.401 497.572 725.943 512.882 708.349 523.487L674.308 544.033C664.883 549.653 654.562 555.538 645.541 561.71C645.522 574.135 644.783 683.308 645.85 685.951L646.698 685.726C674.105 669.524 701.399 653.13 728.576 636.546C736.611 631.654 744.673 626.807 752.762 622.007C757.166 619.401 763.994 615.635 767.99 612.765L767.985 527.772C767.983 518.949 767.936 510.126 767.846 501.303C767.815 498.394 767.887 491.322 767.532 488.685L767.179 488.611ZM359.875 413.23C366.502 409.104 373.068 404.879 379.57 400.557C379.477 380.605 379.174 359.554 379.499 339.67C356.896 324.868 328.651 308.822 305.223 294.705L275.169 276.613C270.038 273.536 261.914 268.41 256.653 265.959C256.436 296.018 256.372 326.079 256.461 356.139C256.472 367.978 256.75 380.81 256.484 392.579C278.633 406.86 302.393 419.637 324.702 433.65C337.048 427.775 348.511 419.076 359.875 413.23ZM513.574 475.599C532.87 462.615 554.915 450.196 574.876 437.489C567.393 433.235 515.502 401.195 512.551 401.42C492.784 411.792 470.578 426.173 450.908 437.734C456.744 441.245 511.305 475.291 513.574 475.599ZM386.44 339.734C386.198 359.775 385.923 379.112 386.175 399.237C392.951 403.238 402.054 408.958 408.816 412.469L444.728 434.022C450.888 431.011 461.648 423.933 467.844 420.195L509.035 395.5C509.096 383.067 509.355 267.08 508.43 266.028C493.072 274.757 477.133 284.897 461.993 294.196C436.951 309.611 411.765 324.791 386.44 339.734ZM640.361 406.437C599.232 430.702 558.42 455.5 517.935 480.825C556.295 502.685 594.281 526.855 632.111 549.687C634.817 551.32 640.041 554.588 642.727 555.593C658.109 545.18 674.915 535.666 690.891 526.082L765.266 481.684C727.232 458.833 689.633 435.174 651.362 412.715C649.724 411.754 641.801 406.777 640.361 406.437ZM516.009 395.244C524.218 399.118 532.315 404.349 540.173 408.933C553.848 416.909 567.419 425.469 581.144 433.332C591.988 427.86 606.931 418.458 617.254 412.052C624.07 407.857 631.198 403.305 638.103 399.347C638.518 380.254 638.816 358.393 638.135 339.358C615.992 324.873 589.128 309.768 566.182 295.945C555.222 289.272 544.228 282.656 533.2 276.096C528.297 273.198 520.734 268.479 515.726 266.174C515.495 294.448 515.455 322.723 515.606 350.997L515.599 376.085C515.572 381.881 515.301 389.589 516.009 395.244ZM667.776 414.716C678.408 420.603 690.08 428.138 700.594 434.527L746.224 406.89C753.131 402.728 761.457 398.11 768.043 393.798C768.058 382.328 768.428 268.583 767.071 266.572L645.531 340.071C645.87 357.724 645.329 375.501 645.534 393.163C645.564 395.791 645.594 398.592 645.496 401.204L667.776 414.716ZM256.894 487.85L256.924 612.828C266.062 618.757 275.692 624.103 285.008 629.802L379.465 686.815L379.449 604.626C379.446 595.025 378.848 570.433 379.838 562.168C371.584 556.333 360.549 550.061 351.722 544.716C334.919 534.489 318.055 524.362 301.131 514.336C291.843 508.779 282.587 503.168 273.364 497.505C268.954 494.814 261.454 489.993 256.894 487.85ZM515.674 488.558C515.536 509.708 515.504 530.858 515.578 552.009C515.589 572.035 515.377 592.658 515.74 612.645L592.25 658.703C602.718 665.127 613.226 671.484 623.775 677.773C627.645 680.087 634.755 684.657 638.371 686.375C637.274 645.196 639.093 602.851 638.056 561.401C609.079 543.378 579.868 525.734 550.429 508.475C540.69 502.76 525.499 492.752 515.674 488.558ZM508.042 487.587C468.377 511.683 425.259 536.245 386.55 561.391C386.526 572.573 386.217 685.071 386.891 686.236L387.241 686.11C396.807 680.746 406.759 674.352 416.207 668.642C437.279 656.045 458.276 643.322 479.197 630.475C487.382 625.54 500.959 616.762 509.018 612.529C509.009 604.258 508.938 488.707 508.042 487.587ZM383.277 185.929C342.526 210.087 299.923 235.089 260.008 260.382C272.951 267.087 284.355 274.338 296.873 281.775L351.327 314.33C360.946 320.178 374.141 328.87 383.615 333.779L468.48 282.264C480.414 274.978 493.945 267.297 505.555 259.795C478.65 243.042 451.559 226.591 424.286 210.445L397.441 194.435C393.357 192.012 387.073 188.54 383.277 185.929ZM642.8 333.532C666.064 320.396 688.14 306.334 710.858 292.38C728.595 281.484 747.027 270.968 764.944 260.238C756.591 254.388 644.201 186.225 641.761 185.912C616.561 200.474 591.528 215.322 566.667 230.453C551.272 239.805 534.191 249.616 519.593 259.863C545.039 275.553 571.364 290.708 596.999 306.353L628.695 325.456C631.099 326.896 640.729 332.859 642.8 333.532Z"/><path fill="#111827" transform="translate(-250 -177)" d="M406.799 440.535C409.287 440.402 411.743 440.755 414.028 441.777C417.164 443.178 419.85 445.682 421.072 448.934C422.204 451.949 421.966 455.706 420.493 458.57C417.886 463.639 381.863 501.578 375.9 506.177C372.553 508.758 368.089 509.892 364.124 511.216C360.574 512.337 356.472 514.247 353.121 513.088C346.929 507.061 356.225 486.964 363.003 481.719C373.007 473.978 395.836 443.647 406.799 440.535ZM372.867 499.437C380.645 492.86 399.207 473.405 405.962 465.024C402.793 463.389 398.837 460.236 396.069 457.9C386.283 467.014 377.12 476.788 367.77 486.341C366.196 487.95 364.666 489.576 363.329 491.39C365.299 493.333 370.64 498.165 372.867 499.437ZM406.977 446.464C404.073 448.384 402.65 449.766 400.606 452.617C403.544 456.194 406.367 457.802 410.248 460.304C415.259 459.183 419.006 446.87 406.977 446.464ZM357.648 506.826L362.119 505.172C363.693 504.596 365.258 503.995 366.813 503.369L359.926 497.35C359.116 500.483 358.232 503.649 357.648 506.826Z"/><path fill="#111827" transform="translate(-250 -177)" d="M630.091 441.079C635.303 440.865 650.486 439.647 655.187 442.998C656.457 443.903 656.053 450.268 655.991 452.105C659.631 452.09 667.712 451.459 670.949 453.194C672.102 453.812 671.788 457.124 670.182 458.5C669.028 458.658 666.73 458.757 665.938 459.704C664.333 461.626 666.357 509.09 665.045 516.477C664.81 517.804 664.266 519.472 663.254 520.425C660.09 523.399 630.878 522.008 624.611 522.007C618.717 521.025 616.844 520.73 616.558 513.993C616.294 507.776 616.457 501.534 616.459 495.31L616.466 459.101C614.175 459.101 613.513 459.107 611.287 458.705C609.503 457.035 609.225 456.706 610.209 454.633C617.191 449.372 643.15 453.619 650.979 451.636L651.058 450.555C646.599 443.216 627.974 453.138 626.431 446.279C627.232 443.279 627.517 442.727 630.091 441.079ZM623.5 514.545C634.663 514.642 647.466 515.043 658.506 514.464L658.485 458.995C647.562 459.012 634.262 459.381 623.524 458.972C623.529 477.354 623.756 496.203 623.5 514.545Z"/><path fill="#111827" transform="translate(-250 -177)" d="M636.32 228.198C652.452 226.386 670.611 232.241 683.615 241.703C689.634 246.083 703.881 256.577 696.409 265.017C684.652 278.298 667.006 287.118 649.598 289.945C631.218 291.688 611.031 283.796 596.854 272.377C589.728 266.638 582.927 259.662 590.982 251.408C602.073 240.042 620.27 229.235 636.32 228.198ZM594.419 259.348C603.844 275.2 635.196 286.556 652.895 282.441C660.719 281.646 689.404 269.542 690.689 259.051C691.189 254.973 676.016 244.448 672.707 242.8C663.002 237.068 652.954 234.703 641.792 235.304C640.069 235.396 635.841 235.334 634.346 235.644C620.687 237.943 601.569 247.083 594.419 259.348Z"/><path fill="#111827" transform="translate(-250 -177)" d="M642.393 238.438C653.494 238.234 662.667 247.051 662.904 258.151C663.142 269.252 654.353 278.452 643.253 278.723C632.105 278.995 622.857 270.16 622.619 259.012C622.381 247.863 631.244 238.642 642.393 238.438ZM646.259 271.795C653.128 269.947 657.273 262.962 655.606 256.048C653.938 249.133 647.065 244.806 640.109 246.291C635.444 247.288 631.687 250.737 630.297 255.3C628.907 259.863 630.102 264.821 633.419 268.249C636.737 271.677 641.653 273.035 646.259 271.795Z"/><path fill="#111827" transform="translate(-250 -177)" d="M375.856 211.159C381.057 211.137 390.664 210.127 395.158 213.234C395.974 213.798 397.009 216.123 397 217.13C396.918 225.903 396.893 234.656 396.97 243.446C406.689 243.609 418.385 242.628 427.734 244.458C430.375 244.974 429.892 265.138 428.006 268.029C424.054 269.814 403.241 269.132 397.203 269.121C397.487 277.651 397.05 286.735 397.146 295.315C397.183 298.54 396.932 300.112 394.068 301.469C388.784 301.469 376.438 302.886 372.029 299.604C371.453 299.175 370.674 297.061 370.692 296.252C370.889 287.284 370.742 278.421 370.51 269.446C364.879 269.469 344.032 269.986 339.684 268.727C337.537 266.055 338.68 257.674 338.219 254.161C336.259 239.199 359.594 243.553 370.559 243.573C370.987 235.583 369.389 220.108 372.216 212.893C372.665 211.747 374.638 211.402 375.856 211.159ZM376.589 250.349L345.047 250.468L345.017 263.532C354.75 263.63 366.94 263.441 376.497 264.114C376.568 274.52 376.565 284.925 376.488 295.331C381.401 295.114 386.499 295.198 391.43 295.205C391.55 285.139 391.048 273.396 391.602 263.571C402.178 263.483 412.885 263.616 423.429 263.455L423.392 250.048C413.095 249.899 401.59 250.238 391.495 249.865C391.212 239.915 391.042 228.363 391.241 218.411C386.552 218.361 381.522 218.502 376.92 218.39C376.927 225.484 377.362 244.447 376.589 250.349Z"/></g></svg>